<svg xmlns="http://www.w3.org/2000/svg" xmlns:xlink="http://www.w3.org/1999/xlink" width="500" zoomAndPan="magnify" viewBox="0 0 375 374.999991" height="500" preserveAspectRatio="xMidYMid meet" version="1.0"><defs><clipPath id="13583df3b7"><path d="M 10.566406 16 L 364.566406 16 L 364.566406 375 L 10.566406 375 Z M 10.566406 16 " clip-rule="nonzero"/></clipPath></defs><path fill="#ffffff" d="M 345.871094 190.792969 C 345.871094 193.371094 345.808594 195.945312 345.683594 198.519531 C 345.558594 201.09375 345.367188 203.664062 345.113281 206.230469 C 344.863281 208.796875 344.546875 211.355469 344.167969 213.902344 C 343.789062 216.453125 343.347656 218.992188 342.84375 221.519531 C 342.34375 224.046875 341.777344 226.5625 341.152344 229.0625 C 340.523438 231.5625 339.835938 234.046875 339.089844 236.515625 C 338.339844 238.980469 337.53125 241.429688 336.660156 243.855469 C 335.792969 246.28125 334.867188 248.6875 333.878906 251.066406 C 332.890625 253.449219 331.847656 255.804688 330.746094 258.136719 C 329.640625 260.464844 328.484375 262.765625 327.265625 265.039062 C 326.050781 267.3125 324.78125 269.554688 323.457031 271.765625 C 322.128906 273.976562 320.75 276.15625 319.316406 278.296875 C 317.886719 280.441406 316.402344 282.550781 314.863281 284.621094 C 313.328125 286.691406 311.742188 288.722656 310.105469 290.714844 C 308.46875 292.707031 306.785156 294.65625 305.054688 296.566406 C 303.324219 298.476562 301.546875 300.34375 299.722656 302.167969 C 297.898438 303.988281 296.03125 305.765625 294.121094 307.496094 C 292.210938 309.230469 290.257812 310.910156 288.265625 312.546875 C 286.269531 314.183594 284.238281 315.769531 282.167969 317.304688 C 280.097656 318.839844 277.988281 320.324219 275.84375 321.753906 C 273.699219 323.1875 271.523438 324.566406 269.308594 325.890625 C 267.097656 327.214844 264.855469 328.488281 262.582031 329.703125 C 260.304688 330.917969 258.003906 332.074219 255.671875 333.175781 C 253.339844 334.28125 250.984375 335.324219 248.601562 336.308594 C 246.21875 337.296875 243.816406 338.222656 241.386719 339.09375 C 238.957031 339.960938 236.511719 340.769531 234.042969 341.519531 C 231.574219 342.265625 229.089844 342.953125 226.589844 343.578125 C 224.085938 344.207031 221.574219 344.769531 219.042969 345.273438 C 216.515625 345.777344 213.972656 346.21875 211.421875 346.59375 C 208.871094 346.972656 206.3125 347.289062 203.746094 347.542969 C 201.179688 347.792969 198.609375 347.984375 196.035156 348.109375 C 193.457031 348.238281 190.882812 348.300781 188.300781 348.300781 C 185.722656 348.300781 183.148438 348.238281 180.570312 348.109375 C 177.996094 347.984375 175.425781 347.792969 172.859375 347.542969 C 170.292969 347.289062 167.734375 346.972656 165.183594 346.59375 C 162.632812 346.21875 160.089844 345.777344 157.5625 345.273438 C 155.03125 344.769531 152.519531 344.207031 150.015625 343.578125 C 147.515625 342.953125 145.03125 342.265625 142.5625 341.519531 C 140.09375 340.769531 137.648438 339.960938 135.21875 339.09375 C 132.789062 338.222656 130.386719 337.296875 128.003906 336.308594 C 125.621094 335.324219 123.265625 334.28125 120.933594 333.175781 C 118.601562 332.074219 116.300781 330.917969 114.023438 329.703125 C 111.75 328.488281 109.507812 327.214844 107.296875 325.890625 C 105.082031 324.566406 102.90625 323.1875 100.761719 321.753906 C 98.617188 320.324219 96.507812 318.839844 94.4375 317.304688 C 92.367188 315.769531 90.335938 314.183594 88.339844 312.546875 C 86.347656 310.910156 84.394531 309.230469 82.484375 307.496094 C 80.574219 305.765625 78.707031 303.988281 76.882812 302.167969 C 75.058594 300.34375 73.28125 298.476562 71.550781 296.566406 C 69.820312 294.65625 68.136719 292.707031 66.5 290.714844 C 64.863281 288.722656 63.277344 286.691406 61.742188 284.621094 C 60.203125 282.550781 58.71875 280.441406 57.289062 278.300781 C 55.855469 276.15625 54.476562 273.976562 53.148438 271.765625 C 51.824219 269.554688 50.554688 267.3125 49.339844 265.039062 C 48.121094 262.765625 46.964844 260.464844 45.859375 258.136719 C 44.757812 255.804688 43.714844 253.449219 42.726562 251.066406 C 41.738281 248.6875 40.8125 246.28125 39.945312 243.855469 C 39.074219 241.429688 38.265625 238.980469 37.515625 236.515625 C 36.769531 234.046875 36.082031 231.5625 35.453125 229.0625 C 34.828125 226.5625 34.261719 224.046875 33.761719 221.519531 C 33.257812 218.992188 32.816406 216.453125 32.4375 213.902344 C 32.058594 211.355469 31.742188 208.796875 31.492188 206.230469 C 31.238281 203.664062 31.046875 201.09375 30.921875 198.519531 C 30.796875 195.945312 30.734375 193.371094 30.734375 190.792969 C 30.734375 188.214844 30.796875 185.636719 30.921875 183.0625 C 31.046875 180.488281 31.238281 177.917969 31.492188 175.355469 C 31.742188 172.789062 32.058594 170.230469 32.4375 167.679688 C 32.816406 165.132812 33.257812 162.59375 33.761719 160.0625 C 34.261719 157.535156 34.828125 155.019531 35.453125 152.519531 C 36.082031 150.019531 36.769531 147.535156 37.515625 145.070312 C 38.265625 142.601562 39.074219 140.15625 39.945312 137.730469 C 40.8125 135.300781 41.738281 132.898438 42.726562 130.515625 C 43.714844 128.136719 44.757812 125.777344 45.859375 123.449219 C 46.964844 121.117188 48.121094 118.816406 49.339844 116.542969 C 50.554688 114.269531 51.824219 112.027344 53.148438 109.816406 C 54.476562 107.605469 55.855469 105.429688 57.289062 103.285156 C 58.71875 101.140625 60.203125 99.035156 61.742188 96.964844 C 63.277344 94.894531 64.863281 92.863281 66.5 90.871094 C 68.136719 88.878906 69.820312 86.925781 71.550781 85.015625 C 73.28125 83.105469 75.058594 81.238281 76.882812 79.417969 C 78.707031 77.59375 80.574219 75.816406 82.484375 74.085938 C 84.394531 72.355469 86.347656 70.671875 88.339844 69.039062 C 90.335938 67.402344 92.367188 65.816406 94.4375 64.28125 C 96.507812 62.746094 98.617188 61.261719 100.761719 59.828125 C 102.90625 58.398438 105.082031 57.019531 107.296875 55.695312 C 109.507812 54.367188 111.75 53.097656 114.023438 51.882812 C 116.300781 50.667969 118.601562 49.507812 120.933594 48.40625 C 123.265625 47.304688 125.621094 46.261719 128.003906 45.273438 C 130.386719 44.289062 132.789062 43.359375 135.21875 42.492188 C 137.648438 41.625 140.09375 40.816406 142.5625 40.066406 C 145.03125 39.320312 147.515625 38.632812 150.015625 38.003906 C 152.519531 37.378906 155.03125 36.8125 157.5625 36.3125 C 160.089844 35.808594 162.632812 35.367188 165.183594 34.988281 C 167.734375 34.609375 170.292969 34.296875 172.859375 34.042969 C 175.425781 33.789062 177.996094 33.601562 180.570312 33.472656 C 183.148438 33.347656 185.722656 33.285156 188.300781 33.285156 C 190.882812 33.285156 193.457031 33.347656 196.035156 33.472656 C 198.609375 33.601562 201.179688 33.789062 203.746094 34.042969 C 206.3125 34.296875 208.871094 34.609375 211.421875 34.988281 C 213.972656 35.367188 216.515625 35.808594 219.042969 36.3125 C 221.574219 36.8125 224.085938 37.378906 226.589844 38.003906 C 229.089844 38.632812 231.574219 39.320312 234.042969 40.066406 C 236.511719 40.816406 238.957031 41.625 241.386719 42.492188 C 243.816406 43.359375 246.21875 44.289062 248.601562 45.273438 C 250.984375 46.261719 253.339844 47.304688 255.671875 48.40625 C 258.003906 49.507812 260.304688 50.667969 262.582031 51.882812 C 264.855469 53.097656 267.097656 54.367188 269.308594 55.695312 C 271.523438 57.019531 273.699219 58.398438 275.84375 59.828125 C 277.988281 61.261719 280.097656 62.746094 282.167969 64.28125 C 284.238281 65.816406 286.269531 67.402344 288.265625 69.039062 C 290.257812 70.671875 292.210938 72.355469 294.121094 74.085938 C 296.03125 75.816406 297.898438 77.59375 299.722656 79.417969 C 301.546875 81.238281 303.324219 83.105469 305.054688 85.015625 C 306.785156 86.925781 308.46875 88.878906 310.105469 90.871094 C 311.742188 92.863281 313.328125 94.894531 314.863281 96.964844 C 316.402344 99.035156 317.886719 101.140625 319.316406 103.285156 C 320.75 105.429688 322.128906 107.605469 323.457031 109.816406 C 324.78125 112.027344 326.050781 114.269531 327.265625 116.542969 C 328.484375 118.816406 329.640625 121.117188 330.746094 123.449219 C 331.847656 125.777344 332.890625 128.136719 333.878906 130.515625 C 334.867188 132.898438 335.792969 135.300781 336.660156 137.730469 C 337.53125 140.15625 338.339844 142.601562 339.089844 145.070312 C 339.835938 147.535156 340.523438 150.019531 341.152344 152.519531 C 341.777344 155.023438 342.34375 157.535156 342.84375 160.0625 C 343.347656 162.59375 343.789062 165.132812 344.167969 167.679688 C 344.546875 170.230469 344.863281 172.789062 345.113281 175.355469 C 345.367188 177.917969 345.558594 180.488281 345.683594 183.0625 C 345.808594 185.636719 345.871094 188.214844 345.871094 190.792969 Z M 345.871094 190.792969 " fill-opacity="1" fill-rule="nonzero"/><g clip-path="url(#13583df3b7)"><path fill="#4fd1d9" d="M 320.992188 78.003906 C 319.5 76.257812 317.96875 74.542969 316.410156 72.855469 C 314.847656 71.171875 313.25 69.515625 311.625 67.894531 C 309.996094 66.273438 308.339844 64.683594 306.648438 63.125 C 304.960938 61.566406 303.238281 60.042969 301.488281 58.554688 C 299.742188 57.0625 297.960938 55.609375 296.15625 54.1875 C 294.347656 52.769531 292.515625 51.382812 290.652344 50.035156 C 288.792969 48.6875 286.90625 47.378906 284.992188 46.105469 C 283.078125 44.832031 281.140625 43.59375 279.179688 42.398438 C 277.21875 41.199219 275.234375 40.042969 273.226562 38.921875 C 271.21875 37.800781 269.191406 36.722656 267.140625 35.683594 C 265.09375 34.644531 263.023438 33.644531 260.933594 32.6875 C 258.84375 31.726562 256.738281 30.808594 254.613281 29.933594 C 252.488281 29.058594 250.347656 28.226562 248.1875 27.433594 C 246.03125 26.644531 243.859375 25.894531 241.671875 25.1875 C 239.484375 24.480469 237.285156 23.820312 235.070312 23.199219 C 232.859375 22.578125 230.632812 22.003906 228.398438 21.472656 C 226.160156 20.941406 223.914062 20.453125 221.660156 20.007812 C 219.40625 19.5625 217.140625 19.164062 214.871094 18.808594 C 212.601562 18.453125 210.324219 18.144531 208.039062 17.878906 C 205.757812 17.613281 203.46875 17.394531 201.179688 17.21875 C 198.886719 17.042969 196.59375 16.914062 194.296875 16.828125 C 192 16.742188 189.703125 16.703125 187.402344 16.707031 C 185.105469 16.710938 182.808594 16.761719 180.511719 16.855469 C 178.214844 16.953125 175.921875 17.09375 173.628906 17.277344 C 171.339844 17.464844 169.050781 17.695312 166.769531 17.96875 C 164.488281 18.246094 162.214844 18.566406 159.945312 18.929688 C 157.675781 19.296875 155.414062 19.703125 153.160156 20.15625 C 150.90625 20.613281 148.664062 21.109375 146.429688 21.652344 C 144.195312 22.195312 141.972656 22.777344 139.765625 23.410156 C 137.554688 24.039062 135.355469 24.710938 133.171875 25.425781 C 130.988281 26.140625 128.820312 26.898438 126.664062 27.699219 C 124.511719 28.5 122.371094 29.34375 120.25 30.230469 C 112.53125 33.476562 105.078125 37.25 97.890625 41.546875 C 90.703125 45.84375 83.851562 50.628906 77.339844 55.890625 C 70.828125 61.15625 64.71875 66.855469 59.011719 72.980469 C 53.304688 79.109375 48.054688 85.605469 43.265625 92.472656 C 39.425781 97.980469 35.894531 103.683594 32.675781 109.574219 C 29.320312 115.761719 26.339844 122.128906 23.734375 128.664062 C 21.128906 135.203125 18.917969 141.871094 17.09375 148.671875 C 15.273438 155.46875 13.855469 162.351562 12.84375 169.316406 C 11.832031 176.28125 11.230469 183.28125 11.042969 190.320312 C 11.042969 192.046875 10.898438 193.777344 10.898438 195.53125 C 10.890625 198.011719 10.933594 200.496094 11.027344 202.976562 C 11.121094 205.457031 11.269531 207.9375 11.46875 210.414062 C 11.664062 212.890625 11.914062 215.359375 12.214844 217.824219 C 12.515625 220.289062 12.871094 222.746094 13.273438 225.199219 C 13.675781 227.648438 14.132812 230.089844 14.636719 232.519531 C 15.144531 234.953125 15.699219 237.371094 16.308594 239.78125 C 16.914062 242.1875 17.570312 244.585938 18.277344 246.964844 C 18.984375 249.347656 19.742188 251.710938 20.546875 254.058594 C 21.351562 256.410156 22.207031 258.742188 23.109375 261.054688 C 24.011719 263.367188 24.964844 265.664062 25.960938 267.9375 C 26.960938 270.210938 28.007812 272.460938 29.101562 274.691406 C 30.195312 276.921875 31.332031 279.128906 32.515625 281.3125 C 33.703125 283.496094 34.933594 285.652344 36.207031 287.785156 C 37.484375 289.914062 38.800781 292.019531 40.164062 294.097656 C 41.527344 296.171875 42.933594 298.21875 44.382812 300.238281 C 45.832031 302.253906 47.320312 304.242188 48.851562 306.199219 C 50.382812 308.152344 51.957031 310.074219 53.566406 311.964844 C 55.179688 313.855469 56.828125 315.710938 58.519531 317.53125 C 60.207031 319.355469 61.933594 321.140625 63.699219 322.886719 C 65.460938 324.636719 67.261719 326.347656 69.097656 328.023438 C 70.933594 329.695312 72.800781 331.332031 74.707031 332.925781 C 76.609375 334.523438 78.546875 336.078125 80.515625 337.59375 C 82.484375 339.109375 84.480469 340.582031 86.511719 342.015625 C 88.542969 343.445312 90.601562 344.835938 92.691406 346.179688 C 94.777344 347.527344 96.894531 348.828125 99.035156 350.085938 C 101.179688 351.34375 103.347656 352.554688 105.539062 353.722656 C 107.730469 354.890625 109.949219 356.011719 112.1875 357.085938 C 114.429688 358.160156 116.691406 359.1875 118.972656 360.167969 C 121.253906 361.148438 123.558594 362.078125 125.878906 362.964844 C 128.203125 363.847656 130.539062 364.683594 132.898438 365.46875 C 135.253906 366.257812 137.625 366.992188 140.015625 367.679688 C 142.402344 368.367188 144.800781 369.003906 147.214844 369.59375 C 160.546875 372.75 174.058594 374.328125 187.757812 374.332031 C 285.425781 374.332031 364.617188 294.273438 364.617188 195.503906 C 364.625 190.167969 364.398438 184.839844 363.929688 179.519531 C 363.464844 174.203125 362.761719 168.914062 361.824219 163.660156 C 360.886719 158.40625 359.714844 153.203125 358.308594 148.050781 C 356.90625 142.902344 355.273438 137.824219 353.417969 132.816406 C 351.558594 127.8125 349.480469 122.902344 347.183594 118.082031 C 344.886719 113.261719 342.378906 108.554688 339.660156 103.957031 C 336.941406 99.363281 334.023438 94.898438 330.90625 90.5625 C 327.789062 86.230469 324.484375 82.042969 320.992188 78.003906 Z M 253.414062 214.167969 L 209.296875 214.167969 L 209.296875 259.574219 L 163.875 259.574219 L 163.875 214.167969 L 119.753906 214.167969 L 119.753906 169.808594 L 163.875 169.808594 L 163.875 124.402344 L 209.296875 124.402344 L 209.296875 169.808594 L 253.414062 169.808594 Z M 253.414062 214.167969 " fill-opacity="1" fill-rule="nonzero"/></g></svg>