<svg xmlns="http://www.w3.org/2000/svg" xmlns:xlink="http://www.w3.org/1999/xlink" width="500" zoomAndPan="magnify" viewBox="0 0 375 374.999991" height="500" preserveAspectRatio="xMidYMid meet" version="1.0"><defs><clipPath id="76f7048838"><path d="M 8.585938 8.585938 L 366.335938 8.585938 L 366.335938 366.335938 L 8.585938 366.335938 Z M 8.585938 8.585938 " clip-rule="nonzero"/></clipPath><clipPath id="9a72cee2d5"><path d="M 73 65 L 297 65 L 297 298 L 73 298 Z M 73 65 " clip-rule="nonzero"/></clipPath><clipPath id="6619943001"><path d="M 136.78125 32.546875 L 302.90625 73.074219 L 238.386719 337.566406 L 72.257812 297.042969 Z M 136.78125 32.546875 " clip-rule="nonzero"/></clipPath><clipPath id="d46f7493b3"><path d="M 136.78125 32.546875 L 302.90625 73.074219 L 238.386719 337.566406 L 72.257812 297.042969 Z M 136.78125 32.546875 " clip-rule="nonzero"/></clipPath><clipPath id="d2f341e8da"><path d="M 136.78125 32.546875 L 302.90625 73.074219 L 238.386719 337.566406 L 72.257812 297.042969 Z M 136.78125 32.546875 " clip-rule="nonzero"/></clipPath></defs><g clip-path="url(#76f7048838)"><path fill="#4fd1d9" d="M 187.496094 366.40625 C 89.097656 366.40625 8.585938 285.898438 8.585938 187.496094 C 8.585938 89.097656 89.097656 8.585938 187.496094 8.585938 C 285.898438 8.585938 366.40625 89.097656 366.40625 187.496094 C 366.40625 285.898438 285.898438 366.40625 187.496094 366.40625 Z M 187.496094 366.40625 " fill-opacity="1" fill-rule="nonzero"/></g><g clip-path="url(#9a72cee2d5)"><g clip-path="url(#6619943001)"><g clip-path="url(#d46f7493b3)"><g clip-path="url(#d2f341e8da)"><path fill="#000000" d="M 88.359375 247.078125 L 257.070312 70.734375 C 260.027344 67.640625 264.09375 65.855469 268.371094 65.757812 C 272.648438 65.660156 276.789062 67.269531 279.886719 70.222656 C 283.632812 73.804688 287.917969 77.898438 291.664062 81.476562 C 294.757812 84.429688 296.554688 88.492188 296.648438 92.765625 C 296.746094 97.042969 295.140625 101.179688 292.183594 104.269531 L 123.472656 280.613281 C 123.246094 280.859375 122.972656 281.066406 122.65625 281.222656 L 122.570312 281.265625 L 122.539062 281.277344 C 122.46875 281.308594 122.398438 281.335938 122.328125 281.359375 L 77.175781 297.527344 C 76.171875 297.886719 75.050781 297.648438 74.277344 296.914062 C 73.507812 296.175781 73.21875 295.066406 73.53125 294.046875 L 87.664062 248.25 C 87.683594 248.179688 87.707031 248.109375 87.734375 248.035156 L 87.761719 247.972656 L 87.785156 247.914062 C 87.929688 247.59375 88.125 247.3125 88.359375 247.078125 Z M 92.152344 252.808594 L 82.433594 284.316406 L 84.566406 282.082031 C 85.640625 280.960938 87.425781 280.921875 88.550781 281.996094 C 89.675781 283.070312 89.714844 284.851562 88.640625 285.972656 L 86.503906 288.207031 L 117.566406 277.085938 L 109.71875 259.871094 Z M 122.238281 273.753906 L 270.15625 119.144531 L 243.191406 93.390625 L 95.273438 247.996094 L 112.863281 255.070312 C 113.535156 255.335938 114.078125 255.855469 114.375 256.511719 Z M 247.082031 89.320312 L 274.046875 115.078125 L 277.570312 111.394531 L 250.605469 85.640625 Z M 281.460938 107.328125 L 288.109375 100.378906 C 290.035156 98.367188 291.078125 95.675781 291.015625 92.894531 C 290.953125 90.109375 289.785156 87.46875 287.769531 85.542969 C 284.027344 81.964844 279.738281 77.871094 275.992188 74.292969 C 273.976562 72.371094 271.28125 71.324219 268.5 71.386719 C 265.714844 71.449219 263.070312 72.613281 261.144531 74.625 L 254.496094 81.574219 Z M 281.460938 107.328125 " fill-opacity="1" fill-rule="evenodd"/></g></g></g></g></svg>